<svg width="487" height="127" viewBox="0 0 487 127" fill="none" xmlns="http://www.w3.org/2000/svg">
<path d="M29.184 98.96C24.576 98.96 20.608 98.192 17.28 96.656C14.016 95.12 11.488 92.912 9.696 90.032C7.904 87.152 6.976 83.728 6.912 79.76H15.552C15.552 83.28 16.736 86.064 19.104 88.112C21.536 90.16 24.896 91.184 29.184 91.184C33.216 91.184 36.352 90.192 38.592 88.208C40.896 86.224 42.048 83.472 42.048 79.952C42.048 77.136 41.28 74.672 39.744 72.56C38.272 70.448 36.128 68.976 33.312 68.144L23.808 65.168C19.008 63.696 15.296 61.232 12.672 57.776C10.112 54.32 8.832 50.256 8.832 45.584C8.832 41.808 9.664 38.544 11.328 35.792C13.056 32.976 15.456 30.8 18.528 29.264C21.6 27.664 25.216 26.864 29.376 26.864C35.52 26.864 40.448 28.592 44.16 32.048C47.872 35.44 49.76 39.984 49.824 45.68H41.184C41.184 42.224 40.128 39.536 38.016 37.616C35.968 35.632 33.056 34.64 29.28 34.64C25.568 34.64 22.656 35.536 20.544 37.328C18.496 39.12 17.472 41.616 17.472 44.816C17.472 47.696 18.24 50.192 19.776 52.304C21.312 54.416 23.52 55.92 26.4 56.816L36 59.888C40.672 61.36 44.288 63.856 46.848 67.376C49.408 70.896 50.688 75.024 50.688 79.76C50.688 83.6 49.792 86.96 48 89.84C46.208 92.72 43.68 94.96 40.416 96.56C37.216 98.16 33.472 98.96 29.184 98.96ZM66.3945 98V27.92H88.9545C93.3065 27.92 97.0825 28.784 100.283 30.512C103.483 32.176 105.947 34.544 107.675 37.616C109.467 40.688 110.363 44.336 110.363 48.56C110.363 52.72 109.467 56.368 107.675 59.504C105.947 62.576 103.483 64.976 100.283 66.704C97.0825 68.368 93.3065 69.2 88.9545 69.2H75.0345V98H66.3945ZM75.0345 61.424H88.9545C92.7305 61.424 95.7385 60.272 97.9785 57.968C100.283 55.6 101.435 52.464 101.435 48.56C101.435 44.592 100.283 41.456 97.9785 39.152C95.7385 36.848 92.7305 35.696 88.9545 35.696H75.0345V61.424ZM143.925 98.96C139.637 98.96 135.893 98.128 132.693 96.464C129.557 94.736 127.125 92.336 125.397 89.264C123.669 86.128 122.805 82.48 122.805 78.32V47.6C122.805 43.376 123.669 39.728 125.397 36.656C127.125 33.584 129.557 31.216 132.693 29.552C135.893 27.824 139.637 26.96 143.925 26.96C148.277 26.96 152.021 27.824 155.157 29.552C158.293 31.216 160.725 33.584 162.453 36.656C164.181 39.728 165.045 43.376 165.045 47.6V78.32C165.045 82.48 164.181 86.128 162.453 89.264C160.725 92.336 158.261 94.736 155.061 96.464C151.925 98.128 148.213 98.96 143.925 98.96ZM143.925 91.568C147.765 91.568 150.837 90.352 153.141 87.92C155.509 85.424 156.693 82.224 156.693 78.32V47.6C156.693 43.696 155.509 40.528 153.141 38.096C150.837 35.6 147.765 34.352 143.925 34.352C140.085 34.352 136.981 35.6 134.613 38.096C132.309 40.528 131.157 43.696 131.157 47.6V78.32C131.157 82.224 132.309 85.424 134.613 87.92C136.981 90.352 140.085 91.568 143.925 91.568ZM143.925 68.624C142.197 68.624 140.789 68.08 139.701 66.992C138.677 65.904 138.165 64.464 138.165 62.672C138.165 60.944 138.677 59.568 139.701 58.544C140.789 57.456 142.197 56.912 143.925 56.912C145.653 56.912 147.029 57.456 148.053 58.544C149.141 59.568 149.685 60.944 149.685 62.672C149.685 64.464 149.141 65.904 148.053 66.992C147.029 68.08 145.653 68.624 143.925 68.624ZM201.488 98.96C197.2 98.96 193.456 98.128 190.256 96.464C187.12 94.736 184.688 92.336 182.96 89.264C181.232 86.128 180.368 82.48 180.368 78.32V47.6C180.368 43.376 181.232 39.728 182.96 36.656C184.688 33.584 187.12 31.216 190.256 29.552C193.456 27.824 197.2 26.96 201.488 26.96C205.84 26.96 209.584 27.824 212.72 29.552C215.856 31.216 218.288 33.584 220.016 36.656C221.744 39.728 222.608 43.376 222.608 47.6V78.32C222.608 82.48 221.744 86.128 220.016 89.264C218.288 92.336 215.824 94.736 212.624 96.464C209.488 98.128 205.776 98.96 201.488 98.96ZM201.488 91.568C205.328 91.568 208.4 90.352 210.704 87.92C213.072 85.424 214.256 82.224 214.256 78.32V47.6C214.256 43.696 213.072 40.528 210.704 38.096C208.4 35.6 205.328 34.352 201.488 34.352C197.648 34.352 194.544 35.6 192.176 38.096C189.872 40.528 188.72 43.696 188.72 47.6V78.32C188.72 82.224 189.872 85.424 192.176 87.92C194.544 90.352 197.648 91.568 201.488 91.568ZM201.488 68.624C199.76 68.624 198.352 68.08 197.264 66.992C196.24 65.904 195.728 64.464 195.728 62.672C195.728 60.944 196.24 59.568 197.264 58.544C198.352 57.456 199.76 56.912 201.488 56.912C203.216 56.912 204.592 57.456 205.616 58.544C206.704 59.568 207.248 60.944 207.248 62.672C207.248 64.464 206.704 65.904 205.616 66.992C204.592 68.08 203.216 68.624 201.488 68.624ZM241.29 98V27.92H249.93V90.128H281.61V98H241.29ZM297.413 98V27.92H337.733V35.792H305.957V57.488H334.373V65.264H305.957V90.128H337.733V98H297.413ZM354.207 98V27.92H375.903C380.063 27.92 383.711 28.784 386.847 30.512C389.983 32.176 392.415 34.512 394.143 37.52C395.871 40.528 396.735 44.048 396.735 48.08C396.735 52.816 395.487 56.88 392.991 60.272C390.559 63.664 387.231 66 383.007 67.28L397.695 98H387.519L374.079 68.24H362.847V98H354.207ZM362.847 60.464H375.903C379.487 60.464 382.367 59.344 384.543 57.104C386.719 54.8 387.807 51.792 387.807 48.08C387.807 44.304 386.719 41.296 384.543 39.056C382.367 36.816 379.487 35.696 375.903 35.696H362.847V60.464Z" fill="#FC6D09"/>
<circle cx="453" cy="63" r="34" fill="#FC6D09"/>
</svg>
